<?xml version="1.0" encoding="utf-8"?>
<!-- Generator: Adobe Illustrator 25.0.1, SVG Export Plug-In . SVG Version: 6.00 Build 0)  -->
<svg version="1.1" id="Layer_1" xmlns="http://www.w3.org/2000/svg" xmlns:xlink="http://www.w3.org/1999/xlink" x="0px" y="0px"
	 viewBox="0 0 2751 1210.3" style="enable-background:new 0 0 2751 1210.3;" xml:space="preserve">
<style type="text/css">
	.st0{fill:#A83125;}
	.st1{fill:#D5991E;}
	.st2{fill:#5B433B;}
	.st3{fill:#E0A61F;}
	.st4{fill:#E77928;}
	.st5{fill:#B34826;}
	.st6{fill:#F5CB15;}
	.st7{fill:#F0A625;}
	.st8{fill:#5197D2;}
	.st9{fill:#F3B921;}
	.st10{fill:#3A6AB2;}
	.st11{fill:#E45F28;}
	.st12{fill:#D82528;}
	.st13{fill:#9C1A23;}
	.st14{fill:#F6D611;}
	.st15{fill:#CD8F1C;}
	.st16{fill:#4889C8;}
	.st17{fill:#EA9025;}
	.st18{fill:#E67429;}
	.st19{fill:#CE1725;}
	.st20{fill:#C3841C;}
	.st21{fill:#BB5527;}
	.st22{fill:#E13828;}
	.st23{fill:#57A1D8;}
	.st24{fill:#E88328;}
	.st25{fill:#3F77BC;}
	.st26{fill:#E24726;}
	.st27{fill:#F2B822;}
	.st28{fill:#F7E713;}
	.st29{fill:#EA9523;}
	.st30{fill:#C36327;}
	.st31{fill:#EC9D25;}
	.st32{fill:#2C6D30;}
	.st33{fill:#6A9630;}
	.st34{fill:#91222A;}
	.st35{fill:#CD7128;}
	.st36{fill:#6A9631;}
	.st37{fill:#2C6E30;}
	.st38{fill:#6B9630;}
	.st39{fill:#EA9E26;}
	.st40{fill:#2D6D2F;}
	.st41{fill:#E89A25;}
	.st42{fill:#EA8E26;}
	.st43{fill:#EEA025;}
	.st44{fill:#F1AC24;}
</style>
<path class="st0" d="M1032.9,1033.4c-53.4,30.8-109.2,51.1-166.9,62.4c-47.8-59.1-93.3-121.1-140-181.6c-3-3.9-6.1-8-6.9-13.9
	c5-30-6.4-48.8-24.5-64.2c-16.1-13.7-33.1-25.9-46.7-44.2c-18.4-24.7-18.7-45.3,1.4-67.9c37.9-42.8,81.2-49.4,127.7-28.5
	c12,3.2,15,18.9,22.5,28.5c28,35.6,55.3,72,83,108c48.1,62.7,95.9,125.7,144.1,188.2C1029.4,1023.8,1034,1026.3,1032.9,1033.4z"/>
<path class="st1" d="M433.7,1029.4c-15.8-7.4-31.9-13.6-46.4-25c-6.6-13.6-7.1-29.3-7-44.4c0.3-43.2-3-86.2-4.6-129.3
	c-1.8-49.4-4.4-98.7-5.7-148.1c-0.5-18.7-4.7-37.3-1.6-56.2c2.4-15.2-10-13.8-14.3-21.6c26.4-5.8,53-3.9,79.5-2.7
	c34,1.5,68,4.5,101.5,12.7c6.4,3.9,4.7,11.6,4.8,18.3c1.2,62,5.4,123.8,7.2,185.7c2,68.2,6.2,136.2,7.4,204.4
	c0.2,7.9-1.3,15.2-4.7,21.8c-21.4,14.2-43.8,8.4-65.6,4.3C466.8,1045.9,450.5,1036.2,433.7,1029.4z"/>
<path class="st2" d="M234.7,628.5c1.9-50.7-0.1-99.8-24.3-143.5c-14.3-25.9-24.9-55.1-33.1-85.4c-4.4-16.5-11.8-29.4-22.6-39.2
	c-14.1-12.8-26.3-28.3-37.2-45.7c1.1-11.2,7.2-13.5,14.4-13.8c11.9,6.2,21.1,18.1,32.6,25.4c8.8,5.5,12.4,2.8,13.9-9.3
	c2.6-21.2,3.9-42.5,5.6-63.8c0.6-7.5-0.2-15.3,3.3-22.1c3.5-3.6,7-6.6,11.5-2.9c5.8,17.7,6.5,36.4,6.6,55.3
	c0.1,26.5-1.3,53.1,3.4,79.3c1.2,6.6,0.8,15.3,7.4,16.8c5.9,1.3,9.7-5.4,12.8-10.9c12.4-21.9,17.6-47.5,21.7-73.6
	c1.5-9.5,1.7-19.5,6.2-27.9c4.6-5.8,9.4-7.3,14.5-0.9c2,48.4-6.4,94.1-22.4,137.2c-6.8,18.3-4.2,33.2,3.1,48.8
	c4.7,9.9,11.5,18.5,20.1,18.3c9.6-0.2,8.6-14,10.6-22.5c9.1-38.3,26.1-73.3,28.1-114.6c6.3-3.2,11-0.6,14.4,6.9
	c0.4,1.3,0.6,2.6,0.9,4c1.7,8.6-2,22.2,4.3,25c8.4,3.7,12.3-10.5,18-17.1c5.6-6.5,8.9-15.6,13.5-23.3c9.3-15.3,12.3-31.3,7-50.5
	c-2.8-10.1-5.1-21.5-1.7-32.7c0.1-1.5,0.2-3,0.2-4.5c2-5.5,5.4-7.1,9.8-6.3c6.6,9.1,4.8,22.5,9.4,32.8c4.1-3.4,5.5-10.7,10.7-12.1
	c4.5,0.4,7,4.1,8.4,9.3c2.4,19.3-5.8,34.8-11.4,51c-7.8,22.5-16.6,44.4-26.2,68.1c20.2,2.4,34.6-11.9,51-16.3
	c6.6,2.2,12.7,5.2,13.9,15.6c-13.3,28.1-36.1,38.8-57.7,49.3c-16.8,8.2-26,21.9-33.1,41.8c-10.2,28.5-14.3,59.5-22.5,88.8
	c-3.5,15.1-5,30.6-4.9,46.3c5.3,1.7,3.9,7.4,3.8,11.8c-0.2,37.7,2.5,74.9,8.1,111.9c2.8,18.6,7.9,36,13.7,53.3
	c7.5,22.4,4.1,31.2-13.6,39.4c-13.7,6.3-27.9,8.8-42.5,8.1c-8.2-0.8-16.5,0.6-24.7-0.4c-8.2-0.5-16.1-3.7-24.1-5.8
	c-26-9.4-33.7-5.3-21.5-49.8c9.4-34.1,12-70.5,14.3-106.6C229.6,656.8,230.7,642.3,234.7,628.5z"/>
<path class="st3" d="M548,1042.5c3.7-36.2-1.1-72.3-1-108.4c0.2-33.5-4.5-66.4-4-100c0.3-18.3-1.6-37.2-1.8-55.8
	c-0.4-35.4-3.8-70.6-4.4-106.1c-0.3-18.9-0.3-38.3-1.7-57.4c61.1,9.1,120.5,28.8,179.4,51.1c24.5,9.3,49.2,17.8,72.5,32.1
	c-2.5,2.5-5.1,2.1-7.8,0.6c-41.3-13-81.5-14.5-118.1,19.7c-5.2,4.8-10.2,10.2-14.5,16.3c-12,17.2-11.7,32.4,0.6,49.8
	c9.9,14.1,22.4,23.6,34.3,34.2c8.8,7.9,17.6,15.7,26.2,24c16.2,15.7,21.5,35.6,13.2,60.5c-0.6,20.1-11.8,32.3-20.9,45.5
	c-25.5,37.2-58.5,60.4-92.7,80.9c-12.5,5.8-25,11.8-38,15.3C562.1,1046.8,554.7,1049.8,548,1042.5z"/>
<path class="st4" d="M1203.1,701.3c-29.2,11.7-59.1,16.5-89.4,17.9c-2.9,2.2-6.2,1.2-9.3,1.6c-12.7,1.9-14.7-6.7-11.8-20.2
	c4.4-20.9,6.2-42,6.9-63.7c2.1-67.3-14.5-125.6-46.9-176.9c-2.7-4.3-4.8-9.1-7.8-13.2c-10.2-14.9-20.7-29.4-33-41.5
	c-5.1-5-9.6-10.8-11.3-19.4c-1.2-53.9-1.3-107.7,0.4-161.6c5.9-13.9,14.2-7.1,20.3-2.1c23.3,18.9,47.8,35.9,67.9,61
	c37.8,43.8,69.3,94.1,92.5,153c27.1,76.6,39.1,156.3,29.2,240.6C1209.7,685.8,1208.8,694.8,1203.1,701.3z"/>
<path class="st5" d="M779.2,698.5c2.6-0.2,5.2-0.4,7.8-0.6c52.5,24.3,105.4,46,160.8,56.1c28.3,5.2,56.5,10.6,85.2,11.3
	c8.9,3.2,15.8,9.9,22.4,18.8c33.1,45.6,67.8,89.1,101.5,133.9c4.7,6.2,11.4,11.1,10.8,21.9c-37.3,30.9-74.6,61.6-115.5,84.1
	c-6.3,3.4-12.8,6.3-19.2,9.4c-6.3-7.4-12.8-14.6-18.8-22.4c-62.3-81.2-124.5-162.5-186.6-243.9C810.6,745.1,792.5,724.7,779.2,698.5
	z"/>
<path class="st6" d="M837.2,675.5c-38.6-17.8-77.2-35.7-115.8-53.5c-2.5-4.1-2.5-9-2.5-13.9c1.3-87.1,0.2-174.3,0.6-261.4
	c0-8.4-0.1-16.8,2.6-24.6c11.8-17.1,28.2-13.8,43.2-16.2c10-1.6,20.3,1.8,30.2-2.8c16.1-2.3,31.8-0.3,46.7,8.6
	c5.3,7.9,6.2,17.7,6.2,27.5c0.3,103.4,0.3,206.8,0,310.3C848.2,660.2,849.2,672.9,837.2,675.5z"/>
<path class="st7" d="M1004.1,391.3c15.4,14.7,30.1,30.4,41.7,50.5c13.4,29.6,7.7,62.4,8.4,93.8c1,42.9-2.1,85.9-0.3,129
	c0.8,19.7,2.4,40.6-8.2,58c-39-0.1-77.6-5.2-115.6-16.6c-2.6-4.1-2.4-9-2.3-13.9c0.9-115,0.9-230.1,0.4-345.1c1.2-9.8,7-10.7,12-7.8
	C963.2,352.6,987.7,363.5,1004.1,391.3z"/>
<path class="st8" d="M85.5,710.6c11.5,2.3,15.3,15.8,21.5,25.6c46.1,72.6,99,135.6,156.7,192.1c0.8,0.8,1.3,2.2,2,3.2
	c31.8,43.3,32.5,102.2,45.4,155c3.4,14.1,1.6,26.3-10.7,32c-63.4-32.6-121-77.9-173.5-134.5c11.1-18.9,4-37.7-0.4-56.3
	c-15.7-66-26.2-133.9-43-199.4C81.8,722.1,81.8,715.9,85.5,710.6z"/>
<path class="st9" d="M930.1,341c7.3,24.2,4.1,50,3.8,74.4c-1.2,85.8,0.1,171.6-0.5,257.5c-0.1,11.2-0.7,22.2-3.3,32.9
	c-31.9-5.4-62.6-16.8-92.9-30.3c6-4.5,6.3-11.7,6.3-19.7c-0.1-106.5-0.2-213,0-319.4c0-8.6-2.2-16.3-3.4-24.4
	c2.7-4.1,6.3-4.7,10.1-4.3c24.8,3,48.9,10.4,72.1,22.3C926,331.9,930.5,333.7,930.1,341z"/>
<path class="st10" d="M715.7,1129.7c84.5,0.2,167.4-13.9,248.3-46.2c111.7-44.6,210.6-118.8,297.3-220.9c2.3-2.8,4.8-5.4,7.6-8.5
	c2.1,9.6-4.1,12.7-7.2,17.3c-117.9,171.8-266.3,272.3-438,317.2c-36.6,9.6-73.5,17.9-111.2,17.5c-13.1,3.6-26.4,1.1-39.7,1.5
	c-11.7,0.3-16.8-10.2-19.2-23.2c-2.2-11.4-3.5-23.1-6-34.5c-5.5-25-3.6-27.6,16.7-24.2c3,0.2,5.9,0.4,8.9,0.6
	C687.2,1131.3,701.7,1124.9,715.7,1129.7z"/>
<path class="st11" d="M792,1.5c42.2-4.8,83.6,2.6,124.8,13.3c25.4,6.6,50.8,13.6,74.5,28c2.6,54,1.1,108.1,1.4,162.2
	c-5.7,8.8-12,3.3-17.5,0.3c-44.7-24.6-91.6-37.2-139.4-44.9c-9.4-3.8-19.1-1.7-28.7-2.5c-6.7-0.6-13.8-1.9-14.2-12.7
	C790.7,97.3,788.6,49.4,792,1.5z"/>
<path class="st12" d="M1203.1,701.3c14.4-90.2,4.5-176.5-24.3-259.7c-0.8-2.5-1-5.4-1.5-8c-4.2-11.6-5.1-24-5.1-36.6
	c-0.1-59.2-0.2-118.5,0.2-177.7c0.1-10.3-2.6-22.8,7.6-29c27.6,30.5,51.9,65.1,72.4,104.1c2.9,5.6,7.5,10.1,7.8,17.7
	c2.8,19.3,2.7,38.8,2.7,58.3c-0.1,90.7,0,181.3-0.1,272c0,14.7,0.4,29.5-8.3,41.2C1237.7,691.1,1220.8,698.6,1203.1,701.3z"/>
<path class="st13" d="M608.4,1023.8c26.4-16.6,52.1-34.7,74.4-60.1c15.3-17.4,27.8-37.9,38.2-60.6c29.9,33.7,56.1,72.3,84.4,108.1
	c19.9,25.2,39.4,50.8,59.4,75.9c2.6,3.3,2.3,5.4,1.3,8.7c-37.5,9.2-75.3,15.1-113.6,15.1c-37.3,0-74.7-0.5-111.5-9.9
	c-1.6-18.6-7.8-32.8-20-43.9C613,1049.8,606.3,1038.9,608.4,1023.8z"/>
<path class="st14" d="M724.5,320.4c0,91,0,182,0.2,273c0,9.9-1.5,19.2-3.3,28.6c-32.4-10.9-64.8-21.8-97.2-32.7
	c-0.6-73.3-2.7-146.5,1.7-219.7c1.7-8.1,6.5-12.6,11.7-16.1c24.1-16.6,49.6-28.7,76.5-35.3C717.6,317.2,721.4,316.4,724.5,320.4z"/>
<path class="st15" d="M284.4,829c16.1-0.8,31.7-4.1,47-11.2c9.7-4.5,12.3-10.2,7.4-22.9c-22.6-58.5-25.3-121.5-23.8-185.3
	c12.8-5.2,25.9-4.7,39.1-4.8c21.7,1.8,20.3,1.7,18.2,29.9c-1.5,19.7,2.2,39.9,2.1,59.9c0,34.9,5.6,69.4,3.6,104.5
	c-1,17,3.6,34.2,3.1,51.6c-1.1,36.1,5.9,71.8,3.2,108.2c-1.1,15.1,4.8,29.9,2.9,45.4c-36.3-18.2-68-46.5-99.4-75.8
	c-5.3-27.7-5.6-56.8-13.8-83.8C270.7,833.4,278.1,831,284.4,829z"/>
<path class="st16" d="M300.3,1118.4c9.6-11.4,8.5-24.5,5.2-39.4c-7.6-34-14.3-68.4-21.1-102.7c-2-10-6.9-17-12.1-24.2
	c-4.1-5.7-6.9-12.4-6.6-20.7c38,38.2,80.6,66.4,123.6,93.4c26.9,16.9,54.9,30.6,82.5,45.7c7.1,28.9,13.6,58,18.9,87.5
	c2.3,12.9,3.5,24.8-7.4,32.2C420,1175.9,358.7,1153.5,300.3,1118.4z"/>
<path class="st17" d="M420,370.6c-14.4,11.3-30.2,17.5-46.8,20c-3.4,0.5-8.2,3-9.8-2.6c-0.8-2.9,1.4-7.8,2.9-11.2
	c13-29,24.7-58.6,33.7-90.1c1.8-6.5,2.9-13.3,4.3-20c3.3-6.5,7.8-3.1,11.5-1.5c13.9,5.9,27.2,4,40.4-4.1c-2.6-3.2-6-1.2-8.9-2.7
	c-3.3-1.7-8-1.6-8.4-7.7c-0.2-4.5,3.3-6.7,5.9-9.2c5-4.9,11.2-8,14.5-15.7c-5.4-11.4-17.2,3.7-20.7-8.8c-2.6-9.5,5-19.8,0.9-30.6
	c-8.9,3.4-9.1,23.9-20.1,19.3c-6.5-2.7-8.6-13.4-6.2-23.3c30.5-34.6,62.4-66.7,98.9-90c9.4-0.9,16.7-7.2,23.2-15.4
	c1.5-2.9,3.4-4.3,6.1-3.9c7.4,6.3,7.3,16.3,7.5,26c0.8,48.5,1.3,97,1.8,145.5c-2.6,12.2-10.1,19-17.4,25.6
	c-13.5,12-25.5,26.5-38,40.1c-4.9,4.3-7.9,13.7-15.8,9.7c-2-5.6-3.4-12.6-10-6.2c-3,2.9-6,5.8-8.8,9.1c-3.1,3.6-6,9.3-10.8,6.8
	c-5.4-2.8-5-10-5.4-16.1c-0.4-5.2,0.4-10.7-1.7-16.6c-14.9,38-14.9,38-28.5,17.6c-1.4,12.7,0.5,23.6,3.3,34.5
	C419.5,355.8,423.8,362.5,420,370.6z"/>
<path class="st18" d="M792,1.5c2.6,10.6,3.4,21.5,3.3,32.7c-0.2,33.1,0.1,66.1,0,99.2c0,13.8,3.2,20.9,15.5,19.4
	c8.5-1.1,18-4.5,26.1,3.5c-17,12.7-35.5,4.6-53.2,6.2c-31.8-2.9-62.6,8.8-94.1,11.1c-8.1-2.5-15.7,1.6-23.4,3.3
	c-9.7,2.1-18.1-1.9-19-15.4c-2.8-44.2-1.5-88.5-0.8-132.7c0-2.8,2.2-4.6,4.1-5.9C697.1,8.6,743.8-2.9,792,1.5z"/>
<path class="st19" d="M1254.4,683.5c3.2-15.6,3.3-31.5,3.3-47.6c-0.1-100.6-0.1-201.2,0-301.8c0-7.4-1.9-15.5,2.4-22.2
	c50.8,93.6,74.8,198.8,79.9,312.5c0.5,10.9-2.7,16-10,20.5C1305.5,660.1,1280.4,673.1,1254.4,683.5z"/>
<path class="st20" d="M284.4,829c-6,5.8-6.8,8.7-4.3,21.4c5,24.7,14.4,50.8,7.8,78.2C225,872.6,167.8,808.4,119.6,731.1
	c-16.6-26.7-16.1-27.4,7.2-45.6c33.7-26.3,69.9-44.6,107.9-57c0.4,55.2-5.2,109.6-18.9,161.5c-5.4,20.6-2.8,26.8,11.9,29.5
	c3,0.6,5.9,2.7,8.8,4c8.3,20.2,9.8,20.5,22.4,4.8C267.4,828.5,275.9,828.7,284.4,829z"/>
<path class="st21" d="M1167.6,940c-35.7-46.9-71.3-93.8-106.9-140.8c-8.9-11.8-16.9-24.8-27.8-33.9c41.8,0.7,83.4-2.7,124.9-8.9
	c5.8-3.1,11.8-3.6,16.4,2.4c24.9,33.1,53.2,61.8,74.9,99.1C1223.5,887.9,1197.3,917,1167.6,940z"/>
<path class="st22" d="M1179.9,190.2c-4.4,6.7-2.5,14.7-2.5,22.1c-0.2,73.8-0.1,147.5-0.1,221.3c-13.5-22.2-21.9-48.6-35.8-70.7
	c-16.8-27-35.9-51-54.2-76.1c-3.7-8-5.1-16.6-5.1-25.9c0-45.9-0.2-91.7,0.1-137.6c0.1-8.2-0.1-16.9,5.4-23.1
	c30.8,22.2,58.9,49.2,85.3,79.4C1175.7,182.6,1179.6,184.5,1179.9,190.2z"/>
<path class="st23" d="M85.5,710.6c1.3,20.2,6.5,39.3,11.4,58.2c10.2,39.7,17.9,80,24.6,120.9c3.5,21.6,8.8,42.9,15.2,63.3
	c5,16.2,3,25.8-9.8,31C78.7,935.3,38.5,877,5,810.9c-3.5-6.9-6.7-13.3-3.9-23C10.4,755.9,58.9,710.9,85.5,710.6z"/>
<path class="st24" d="M650.6,22.9c0,44.3,0.1,88.7,0.1,133c0,15.4,5.2,18.7,16.4,15.6c7-2,14.3-11.4,22.2-2.4
	c-1.1,11.3-8.9,10-14.3,12.2c-20.7,8.1-41.5,15.7-61,28.4c-17.9,7.7-33.5,21.2-49.9,32.8c-5,3.6-9.5,9.7-16.1,6.2
	c-4.4-47.5-2.2-95.3-3.1-142.9c-0.2-11.2-0.7-22.1-3.3-32.7C576.1,49.7,612.6,33.4,650.6,22.9z"/>
<path class="st25" d="M483.1,1190.3c5.7-11,6-21.8,2.6-34.7c-6.1-23.9-7.5-49.8-16.7-72.6c-2-5-1.1-9.3,2.6-12.4
	c61,24.7,122.7,45.3,186.7,52.2c2,0.2,4,1.8,5.9,2.7c-14.2-1.3-20.8,3.7-11.7,23.1c2.1,4.5,2.2,10.7,3.2,16.1
	c7.4,41,7.4,40.9,39.1,40.9c5.9,0,11.8,0.3,17.6,0.4c-11.2,6.5-23.1,3.2-34.6,3.7C612.5,1212.3,547.5,1206.6,483.1,1190.3z"/>
<path class="st26" d="M1087.8,100.1c-0.1,62.2-0.2,124.4-0.4,186.6c-26.6-25-51.8-52.9-83.3-67.5c-6.3-0.5-12.2-1.6-13.1-12.1
	c-6.3-34.4-1.6-69.4-3.1-104.1c-0.8-17.3,2-34.8-1.7-52c-1.2-5.8,1.9-7.1,5.2-8.1C1025.6,55.8,1057.3,76.1,1087.8,100.1z"/>
<path class="st27" d="M480.9,320.1c4.1-4.2,8.3-8.4,12.4-12.6c7.8-4.1,9,3.6,10.4,10.3c1.5,7.5,1.1,15.2,1.1,22.8
	c0,61.2,0.1,122.4,0,183.6c0,7.7-0.2,15.3,2.2,22.5c1.4,6.7,1.1,12.8-3.9,17c-43.8-3.9-87.6-5.5-131.5-5.5
	c19.2-9.8,19.3-34.1,24.2-54.7c8.2-34.5,18.2-68,33-98.8c3.7-7.7,7.1-15.7,14.7-17.7c12.6-3.3,24.9,6,38,2.3
	c-4-7.1-14.5-6-13.5-17.4c0.7-7.8,8.4-7,12.6-11.2c-4.6-6.8-16.8-3.1-16-15.5C465.4,333.7,470.9,323.5,480.9,320.1z"/>
<path class="st28" d="M503,563.7c0.9-4.4,1.8-8.7,2.7-13.1c-3.7-21.3,5.6-37.4,13-53.9c24.2-53.8,57.4-96,98.2-128.2
	c3.6-2.2,7.1-4.8,11.2-2c3.6,19.3-0.5,38.5-0.2,57.8c0.7,48,0.3,96,0.2,144c0,7.3,2.1,15.6-4,21.1c-31.5-6.7-62.9-13.9-94.4-19.8
	c-10.1-1.9-8.8-7.6-6.3-16.6c13.1-47,32.6-88.6,60.5-123.2c3.8-4.8,7.7-9.6,11.5-14.4c-14,7.2-24.9,20-34.9,33.9
	c-22.3,31.3-40.4,66.2-51.1,107C508.3,560.7,506.9,563.9,503,563.7z"/>
<path class="st29" d="M1045.7,722.4c7.5-36.6,2.2-73.9,2.7-110.8c0.8-56.6,4.3-113.4-2.6-169.9c53.6,74.3,70.1,161.5,50.7,259.7
	c-5.6,28.4,10.8,13.2,17.2,17.8C1091.1,724.8,1068.4,723.3,1045.7,722.4z"/>
<path class="st30" d="M1249.1,857.9c-6.4-3.5-11.1-9.2-15.8-16.3c-16.2-24.5-34.8-45.8-53.6-66.8c-6.7-7.4-9.3-23-21.8-18.4
	c40.4-10.5,80.1-24.6,118.9-42.6c16.9,14,30,33.1,41.7,54C1298.1,801.5,1274.8,831.3,1249.1,857.9z"/>
<path class="st31" d="M445.3,390.8c-18,14.5-23.5,40.1-31.2,62.9c-9.5,27.8-18,56.5-20.5,87.2c-1.5,19.4-15,10.8-22,17.3
	c-17.2,1.7-34.4,3.3-51.6,5c0.7-43.3,14.7-80.9,30.2-117.8c3.7-8.7,10.3-11.2,17-14.1c24-10.5,46.5-24.8,64.6-48.6
	C438,380.5,443.2,381.1,445.3,390.8z"/>
<path class="st32" d="M413.2,182.4c2.3,7.7,4.6,15.5,7.3,24.7c8.2-10.8,11.5-25.9,23-33.6c4.4,15.7,0.7,29.7-3.4,43.4
	c1.5,0.5,2.5,1.4,3.4,1.1c8-2.8,19.7-8.7,22.7,1.4c3.1,10.5-8.8,16.8-15.8,22.8c-3,2.6-6.4,4.7-10.8,7.9c9.3,5.8,18,4.8,29,4.9
	c-21.2,24.9-42.7,19.5-64.4,11.6c-1.4-4.1-3.7-7-6.9-8.7c-10.6-0.6-10.9-17.9-19.9-20.9c-3.2,1.4-6.5,2.9-9.7,4.4
	c-18.4,0.7-32.8-8.9-44.5-29.2c8-3,14.5,6.9,21.8,1.8c-3.7-11-12.1-19.1-13.1-33.2c9.3-1.5,14.9,9.2,23.1,11.7
	c0.7-12.6,0.8-24.8,5.5-37.4c8.9,8.7,9.8,21.5,13.3,34.3c5.2-7.4,9.6-13.8,15.4-22.1c2.9,13.2,0.9,23.5-2.7,34.7
	c14.6-4,13.3-20.5,17.8-32.7C407.7,174.2,410.5,178.3,413.2,182.4z"/>
<path class="st33" d="M130.1,302.9c-4.2,3.9-8.4,7.8-12.6,11.8c-31,12.4-56.8-1.2-82.4-26.2c13.5-10.2,26.1-5.1,39.5-7.4
	c-7.3-18.9-21.5-32.3-24.4-55.8c16.4,3.5,29.3,14.4,44.3,24.5c-0.2-21.8-5.1-41.8-1.3-64.1c15.8,13.1,20.5,35.1,29.2,54
	c8.9-11.8,7.2-29.2,14.5-41.1c0.7,0.8,1.4,1.6,2.1,2.4C147.2,236.6,151,271.6,130.1,302.9z"/>
<path class="st34" d="M608.4,1023.8c5.4,15.1,11.4,28.8,23.1,38.1c10.7,8.5,15.7,22.1,9.5,39c-71.9-9.8-140.9-34.2-207.2-71.6
	c31,9.2,61.7,21,94.1,17c6.8-0.8,13.9,1.6,20.1-3.8C569.3,1043.1,588.3,1030.5,608.4,1023.8z"/>
<path class="st35" d="M1318.4,767.8c-16.2-15-28.8-34.7-41.7-54c44.6-27.1,88-56.7,127.1-96.9
	C1379.9,671.6,1352.9,723.3,1318.4,767.8z"/>
<path class="st36" d="M271.4,266.2c-4.6-0.3-9.3-1.6-13,3.5c-15.2,2.8-24.2-10.3-32.6-23.1c-5.7-8.8-10.9-18.3-16.2-27.6
	c0-12.1,1.8-21.6,13.8-17.2c3.9,1.4,6.4,6.1,10.5,7.5c-0.8-6.3-1.8-12.2-2.4-18.1c0.2-6-1.5-12.3,1.4-18c1.9-2.5-3.5-16.7,6.1-6.8
	c9.8,10.1,15.9,24,21.5,39.9c6.5-17.1,10.3-34.6,22.2-48.3c3,21.2-1.7,40.2-0.5,60.1c11.3-1.5,19.7-10.1,28.7-16.9
	C309,228.2,296.4,249.1,271.4,266.2z"/>
<path class="st37" d="M233,173.1c0.2,5.6,3.2,11.1,0.4,16.8c1.5,10.3-4.2,13.5-9.7,16.9c-11.3-9.1-9.1,6.6-12.6,11.8
	c-2,8.5-6.6,11.4-13.1,10.4c-3.5,1.3-7,2.6-10.5,3.9c-17.6,9-29.9-3.9-41.8-17.8c-3.9-4.6-5.9-11.2-8.9-16.9l0.2,0.4
	c-0.1-3.1-6.6-10.9,2.5-7.3c7.4,2.9,14.2,8.6,23.9,7.8c-5.8-17.8-12.5-33.5-13.5-54.6c9.7,13.1,15.8,27.7,27.7,35.9
	c3.9-18.6,2.7-38.2,12.4-54.5c9.5,13.2,7.4,29.7,9.2,47.2c8.6-9.5,13.2-23.2,24.3-27.2c2.6,13.6-3.6,24.3-5.7,37.7
	C223.3,179.7,228.1,176.4,233,173.1z"/>
<path class="st38" d="M324.1,340c-4.3-2.2-8.7-4.4-13-6.5c-14.8-7.8-23.2-23.5-30.8-42.1c8.8-3.1,14.8,4.2,22.5,6.9
	c0.4-12.4-6-23.7-2.9-37.6c9.3,3.6,13.8,14.7,21.4,23c4.4-12.6,3.6-27.4,12.1-37.9c7.6,13,5.7,27.7,6.2,42.7
	c6.4-2.2,7.4-10.1,11-14.2c4.4-3,6.3-14.1,12.5-9.5c5.8,4.3,1.2,12.4,0.8,19c-0.2,3.8-6,9.1,0.1,11.4c14.5,5.4,6.1,14.3,1.5,20.2
	C354.1,330,342.1,343.9,324.1,340z"/>
<path class="st39" d="M324.1,340c18.5-6.5,34.9-17.2,46.1-38.9c-5.8-4.9-10.7,2.6-16.1,0.1c3.5-10.8,8.2-20.7,8.5-33
	c-5.5-2.6-7,8-12.1,6.1c4.2-10.9,10.6-19.7,17-28.5c2.6,15.7,4.9,31.5,8.1,46.9c1.5,7.4,1,13.7-1.6,20.1
	c-9.7,23.5-21.7,44.8-36.4,63.4c-7.1,9-11.7,10.1-12.6-4.9C324.4,360.9,324.4,350.4,324.1,340z"/>
<path class="st25" d="M715.7,1129.7c-14.2-0.7-28.7,4.3-42.5-3.6C687.4,1126.4,701.7,1124.7,715.7,1129.7z"/>
<path class="st24" d="M535.4,76.9c-6,12.4-14.5,18.1-23.2,15.4C519.2,85.3,527,80.3,535.4,76.9z"/>
<path class="st40" d="M445.3,390.8c-4.5-2.7-9-5.4-13.5-8.1c-3.9-4-7.9-8.1-11.8-12.1c-6.5-21.6-13.6-43.1-8.2-70.4
	c5.9,10.6,10.7,19.2,16.1,28.9c7.8-14.1,5-33.6,16.4-45.2c6.7,13.4,2.3,28.7,5.8,44c10.5-9.8,17.5-25.4,32-26
	c-0.5,6.5-0.9,12.3-1.3,18.2c-5.2,8.5-10.5,17-16,26c7.6,11.1,20,3.4,27.6,13.6c-6.2,10-17,5.2-24.5,14c8.6,5.6,16.8,11,27.8,18.1
	C476.7,398.3,461,392.2,445.3,390.8z"/>
<path class="st41" d="M377.5,237c3.1-2,6.1-5.9,9.2,0.6c3.3,7,7.1,13.5,10.7,20.3c-3.1,7-5.5,14.8-12.2,18.5
	C380.6,263.7,378.2,250.6,377.5,237z"/>
<path class="st15" d="M258.9,828.2c2,16.9-6.2,17.1-15.4,16.5c-13.7-1-5.6-13.6-7-21.2C243.9,825.1,251.4,826.7,258.9,828.2z"/>
<path class="st42" d="M991,207c4.4,4,8.7,8.1,13.1,12.1c0,57.4,0,114.8,0,172.1c-23.6-19.4-46-41.7-73.9-50.2
	c-28.5-17.8-58.9-25.4-90-29.1c-14.9-1.5-29.9-2.9-44.8-4.3c-18.1,3.5-18.9,2.7-18.4-19.2c0.8-34.8,0.1-69.5,0.5-104.3
	c0.1-9.7-0.5-19.6,5-27.7c18.2-0.1,36.5-0.1,54.7-0.2c50.5,4.2,98.5,21.4,145,46.8C985,204.6,988,205.7,991,207z"/>
<path class="st43" d="M782.3,156.5c-0.4,47-0.4,94-1.2,141c-0.3,17.3,9.5,6.8,14.2,10.1c-17.4,9.2-36.4-0.3-54,8.1
	c-5.3,2.5-11.2,3.2-16.8,4.7c-33.9,8.9-66.5,22.4-96.3,46c-3.1,1.6-6.2,3.2-9.4,4.8c-7-4.2-7.9-12.7-8.1-21.1
	c-1-45.2,0.3-90.5-0.9-135.7c-0.1-2.8,1.1-5.4,2.3-7.6c20.8-18.7,45.5-23.4,68.8-33.1c2.9-1.2,6.3-0.6,8.3-4.6
	C720.2,163.4,750.8,154,782.3,156.5z"/>
<path class="st44" d="M612.1,206.7c6.8,43.8,1.6,88.1,3.2,132.1c0.4,10.9-1.3,22.2,3.5,32.4c-14.4,15.2-30,28.5-43.9,44.8
	c-31.8,37.4-57.5,79.8-69.2,134.5c-8.1-5.5-5.9-15.5-5.9-24.1c-0.1-66.2,0-132.4-0.2-198.6c0-7.4,3.5-17.7-6.3-20.4
	c15.8-23.5,36.8-38.7,54.7-58.8C569.5,235,588,213.4,612.1,206.7z"/>
<g>
	<path class="st2" d="M1592.7,695.6l-0.4-0.7c-0.6-0.2-0.8-0.2-1.1-0.4h-0.4l0.2,0.2l-5.1-2.4l-6-3.8c-4.1-2.5-6.4-4.9-7.5-6.9
		c-0.6-0.7-0.8-1.3-0.8-1.8s0.2-1.1,0.8-1.6c1.3-1.6,1.9-3.6,2.1-6.3c0-7.3-0.2-12.7-0.4-16.5c-1.1-12.2-1.9-18.3-2.8-18.3
		l-1.7-13.4c0-6.7,0.2-11.4,0.8-14.2v-0.4c-0.2-0.2-0.2-0.5-0.2-0.9c0-0.9,0.4-1.6,1.5-2.5c0.8-0.7,2.6-1.1,4.9-1.1
		c-2.6-1.1-4.1-2.9-4.7-5.4c-0.6-2.5-1.1-5.8-1.1-10c0.2-3.3,0.4-6.2,1.1-8.7c-1.5,0.9-5.3,5.3-11.9,12.9
		c-6.6,7.8-14.7,15.4-24.3,23.2c-9.6,7.8-18.1,14.5-25.6,20l-11.3,8.3c10.5-9.8,21.3-18.5,32.7-26c-2.1,0.4-4.5,1.3-7,2.9
		c-2.8,1.6-4.7,2.7-5.8,2.9c-1.3,0.2-2.1,0.4-2.3,0.4c-1.9,0-3.4-1.3-4.5-3.8l-7,2.7c-3.6,1.3-6.6,1.8-9.4,1.8l-2.6-0.2
		c-17.5-6.9-30.5-28.5-38.8-64.8c-2.3-8.5-3.8-12.7-4.7-12.7c-0.4,0-2.1,4.9-4.9,14.9c-0.6,8.3-6.8,28.1-18.8,59.3
		c-11.3,29.2-18.8,47.4-22.4,54.8c-1.1,2.4-1.7,3.6-1.9,3.6c0-1.6,6.6-19.4,20.1-53.3l-9.2,14.9c-4.7,8-7.2,12-7.7,12l0.2-0.7
		c0.8-1.8,1.3-2.9,1.3-3.1l-2.8,4.7c-4.5,7.8-7.3,12-7.9,12.5l-1.1,0.9c-0.2,0-0.4-0.2-0.4-0.5c0-0.7,0.4-2.2,1.1-4.4
		c0.6,0,0.8-0.7,0.8-2.4c0-1.5-0.2-2.4-0.4-2.9v0.5l-6.4,8c-4.5,4.5-8.8,6.9-12.8,6.9c-3.2,0-6-1.6-8.3-4.9
		c-0.4-0.5-1.1-0.7-2.1-0.7l-0.8,0.2h-2.3c-1.1-0.2-1.5-0.9-1.5-2.2c0-0.9,0.2-2.4,0.6-4.2l-1.1,0.9c-2.3,2.4-3.8,3.5-4.7,3.5
		c-0.4,0-0.6-0.4-0.6-0.9l0.2-1.3c0.4-1.3,0.6-2.5,0.6-3.6c-0.2-0.7-0.4-1.3-0.6-1.6c-0.4-0.2-0.8-0.4-1.5-0.5
		c-1.1-0.2-1.9-0.9-2.1-1.8c0-2.7,0.8-6,2.6-9.8l1.1-3.3c-0.2,0-1.1,1.1-2.1,3.1l-4.5,7.6c-1.1-0.2-1.7-1.5-1.7-3.5
		c0-3.5,1.5-9.8,4.5-19c3.2-10.3,7.2-21.4,12.2-33.6l2.6-6.3c0-0.9,8.3-53,25.2-156.4c5.6-17.6,8.8-26.5,9.4-26.5
		c0.2,0,0.2,0.4,0.2,1.1c0,3.5-3.6,22.3-11.1,57c-7.7,36.1-11.9,57.5-13,63.9c-0.6,4.7-1.1,7.8-1.1,9.1c0,1.1,0.2,1.6,0.6,1.6
		c0.2,0,0.4-0.4,0.8-0.9c-2.8,8.2-4.3,13.2-4.3,15.4c0,0.9,0.2,1.3,0.4,1.3c0.6,0,1.9-1.8,3.6-5.4c1.9-4.5,3.4-10.7,4.3-18.3
		c1.1-14.7,4.1-23.8,9-26.9c-0.4-0.2-0.6-0.9-0.6-2.2c0-3.1,1.1-8.7,3.2-16.5l4.9-17.8h-0.4c-0.4,0-0.6-0.4-0.6-0.9
		c0-0.7,0.2-1.8,0.8-3.5l0.4-1.5c-0.4,0.2-1.1,0.2-1.7,0.2c-0.2,0-0.2-0.2-0.2-0.4c-0.2-0.2-0.2-0.4-0.2-0.7c0-2.2,0.4-3.3,1.5-3.3
		l1.5,0.7l1.7-7.3l-0.6-0.2c-0.4-0.2-0.6-0.4-0.6-0.9c0.2-0.2,0.6-0.5,1.3-1.1l4.9-5.8c2.6-3.1,3.8-5.3,3.8-6.4c0-0.4,0-0.5-0.2-0.7
		l0.8-4.5c-1.1-0.9-1.5-2-1.5-3.1c0-2.7,2.6-6.4,7.7-10.7c0.2-1.1,1.1-2.4,2.6-4c1.1-1.1,1.7-1.6,1.9-1.6s0.4,0.2,0.6,0.5l-0.8,1.5
		c3.6-2.7,7.2-5.4,10.9-7.8c3.4-2.4,5.6-4.2,6.2-5.1h-0.2c0-0.5,1.1-1.3,3.2-2.2c1.9-0.7,4.1-1.1,6.2-1.1c3.6,0,7.3,1.3,11.1,4
		c0.8,0.5,1.5,0.9,2.1,1.5c1.1,0.9,2.1,1.6,2.8,2.2c0.6,0.5,1.1,0.7,1.3,0.9h0.4l-0.6-1.6v-1.8c0-0.4-0.2-0.5-0.6-0.5
		c-0.6,0-1.1-0.4-1.5-1.3l5.6,1.3c10,0.9,17.1,8,21.3,21c4.1,13.2,7,27.4,9,42.5c1.9,16.1,4.7,27.2,8.3,33.2c1.1,1.3,1.9,2,2.3,2
		c0.2,0,0.4-1.5,0.4-4.4l-0.2-3.3c0-8.4,2.1-14.9,6.4-19.4c0.4-0.5,1.1-0.7,2.1-0.7s1.9,0.2,2.6,0.5c0.6,0.5,0.8,0.7,0.8,0.9h-0.4
		l-1.9-0.9c-5.3,6.4-7.9,19.4-7.9,38.8c0,12.2,1.5,20,4.7,23.2c0.2,0,2.1-2.4,6-7.1c11.5-14.3,28.8-35.6,52.1-63.7
		c32.2-39,49.5-58.4,51.4-58.4c0.2,0,0.2,0.2,0.2,0.4c0,0.4,1.1,0.5,3,0.5c2.8,0,6.2-0.9,9.8-2.9l1.3,2.2c0.6,2,1.5,3.1,2.6,3.1
		c0.6,0,1.1-2,1.1-6c0-1.3,0.2-2,0.6-2c0.6,0,1.9,1.1,3.8,3.1c1.9,2.5,4.1,4.5,6.2,5.8c2.1,1.3,3.8,2,5.1,2c1.7,0,3.4-0.7,5.3-2
		l0.4-0.2c1.1,0,2.6,4,4.1,11.8c1.1,5.3,1.7,7.8,2.3,7.8l1.5-6c0-0.7,0.2-1.1,0.4-1.1l1.3,2.5c0.8,2.4,1.7,4.9,2.3,7.8l0.6,2.2
		l-21.8,109.2c-2.8,0-4.3,3.5-4.5,10.5c-0.2,7.1-0.2,12.2-0.2,14.9c0,19,1.3,44.6,4.1,76.6c1.1,14,1.5,23.4,1.5,28.3
		c0,0.4,0,0.5-0.2,0.5c-0.4,0-2.1-8.9-5.3-26.9c-3-18.9-4.5-29.8-4.5-32.7v-1.1c0-1.3-0.6-1.8-2.3-1.8l-6.6,28.7
		c-4.5,19-7,31-7.2,35.8c-0.4,3.5-2.6,6.7-6.6,9.8c-8.1,6.3-16.2,9.6-24.3,9.6C1595.5,700,1593.6,698.5,1592.7,695.6z M1403.9,444
		l1.9-4.4c1.3-3.1,1.9-4.9,2.3-5.4l0.6-0.7v0.2c0,0.2-0.4,1.8-1.1,5.3c-0.8,3.5-1.9,5.1-3.2,5.1L1403.9,444L1403.9,444z"/>
	<path class="st2" d="M1757.9,682.6v-0.2c0-0.7-4.7-1.6-14.3-2.9c-21.1-2.9-36.3-6.3-45.7-10.5c-6.4-2.7-9.6-6.3-9.6-10.7
		l-26.5-40.5c-3.8-24.9-5.8-38.7-5.8-41.4c-0.2,0-0.4-0.5-0.4-1.5c0-3.6,2.1-14.3,6.6-31.8c4.7-18.2,8.5-31.9,11.5-41
		c-0.2-0.4-0.2-0.9-0.2-1.6c0-4.4,4.7-14.9,14.3-31.8c4.1-7.3,7.5-12.9,9.8-16.7l1.7-3.3c-20.3,27.4-33.7,54.4-40.1,81.3
		c-6.4,26.9-10,48.3-10.9,64.2c-0.6,11.8-1.9,17.8-3.8,17.8l-0.4-0.2l-0.2-12c0-38.8,9.4-77.1,28.4-114.9
		c7.9-15.6,13.7-26.5,17.7-32.7c1.7-2.7,2.3-4.2,2.3-4.4v-0.2l-0.2,0.2c-2.3,2-3.8,2.9-4.7,2.9s-1.1-0.4-1.3-1.1l0.2-3.3l0.2-2
		c0-2-0.6-2.9-1.7-2.9c-0.8,0-2.8,1.1-5.6,3.3c-1.3,0.9-2.3,1.5-3.6,1.5c-1.1,0-1.9-0.4-3-1.3c-4.1-3.5-6-8.2-6-14.1
		c0-4.5,1.5-6.7,4.5-6.7h0.2l-0.2-0.4c0-0.2,0-0.4,0-0.5c0-0.2,0.4-0.7,1.5-1.6c1.7-1.5,3.4-2.5,5.1-3.5l3.2-2.2V416
		c-0.2,0-0.2,0.2-0.4,0.2c-0.2,0.2-0.6,0.2-1.1,0.4c-0.6,0.2-1.1,0.4-1.3,0.5c-0.2,0.2-0.4,0.4-0.4,0.5c-3.8,2.4-6,3.5-6.2,3.5h-0.2
		c0-0.7,6.4-6.2,19.2-16.3c7-5.4,10.7-8.4,10.9-8.9c0.6-1.3,4.1-2.7,10.2-4.5c4.9-1.5,7.3-2.4,7.3-2.9l11.9-3.8l20.1-2.5
		c13.2-1.5,23.5-2.4,30.9-2.5c3.8,0,5.8,0.4,5.8,0.9l27.7,10.3c17.9,6.7,28.4,11.1,31.4,12.9c5.8,4.7,13.7,14,23.7,27.8
		c6.4,8.4,10,12.5,10.9,12.5c0.2,0,0.4-0.2,0.4-0.4c0-0.9-0.6-3.1-1.9-6.5c-7.3-20.3-10.9-31.6-10.9-33.8V403c0.8,0,3,4.4,6.8,13.1
		c7.2,17.8,12.8,32.7,16.2,44.6c2.1,7.4,3.2,13.1,3.2,16.9c0,4.9,1.1,11.4,3.2,19.4l3.2,11.4l-0.2,2l0.2,19.4
		c0,12.9-0.4,27.8-1.5,44.5c-1.1,16.7-3,31.4-6,44.3s-7.5,20-13.4,21.2l14.7-63.5c-1.1,4.2-5.3,14.7-13,31.4
		c-7.7,16.7-13,25.2-16,25.2l-0.8-0.2c-0.8,0-3.2,2.4-6.8,7.3c-3.2,4.9-5.6,7.3-6.6,7.3c-0.4,0-0.6-0.2-0.6-0.9
		c-4.5,11.6-21.3,21.2-50.6,28.8c-19.8,5.1-33.7,7.8-41.8,7.8C1758.3,682.9,1757.9,682.8,1757.9,682.6z M1789.9,596.8
		c10.7-8.3,18.1-18.3,22.2-29.9c4.1-11.4,6-21.4,6.2-29.8v-1.6c0-8.2-1.9-17.2-5.8-27.6c6.8,10,10.5,19.6,10.5,28.7
		c-1.1,3.6-1.7,7.4-1.9,11.2c3.4-15.6,5.1-24.7,5.1-27.4c0-4.9-0.8-12.7-2.8-23c-3.2-17.6-6.2-28.3-9.4-32.3l-5.3-8
		c-5.6-7.8-9.6-11.6-12.4-11.6c-1.9,0-3,2.4-3,7.1l-36.7,90.5l-4.3,22.5c-1.3,8.3-1.9,15.1-1.9,20c0,8.5,1.5,13.6,4.3,15.4
		c0.8,0.5,1.9,1.1,3,1.5s2.1,0.9,3.6,1.6c2.3,1.1,4.9,1.6,7.7,1.6C1775.4,605.6,1782.4,602.7,1789.9,596.8z M1767.9,689.7l16.4-4.5
		c16.2-4.3,25-6.5,25.8-6.5h0.2c0,0.2-0.2,0.2-0.4,0.4l-3,1.3c-14.9,7.1-25.8,10.7-32.9,10.7
		C1771.8,690.9,1769.6,690.4,1767.9,689.7z"/>
	<path class="st2" d="M2002.7,718.5c9.2-1.3,21.8-7.1,38-17.2c16.2-10.2,31.2-20.7,44.8-31.8c13.7-11.1,21.1-18.7,22.2-22.9
		l-6.4,3.3l-14.5,9.4c-15.8,10.3-26,16.5-30.3,18.7c-14.9,6.3-22.8,9.8-23.7,10.3l-72.1,12c-1.1,1.6-3,2.4-5.8,2.4
		c-5.8,0-13.7-2.5-24.1-7.4c-7-3.5-13.4-7.3-19-11.4s-8.8-8-9.8-11.4c-4.1-15.1-6.8-26.7-8.3-34.8c-1.5-8.2-2.1-18.7-2.1-31.6v-25.6
		c0-16.7,0.4-31.8,1.3-45.4c1.3-24.7,4.1-37,8.3-37l-6.8,82c2.3-2.7,4.5-11.2,6.2-26l2.1-17.8l-0.6,12.9c-0.2,1.5-0.2,3.1-0.2,4.7
		c0.4-1.8,1.3-7.3,2.8-16.5c1.3-8.5,2.8-18,4.7-28.3c1.9-10.3,3.8-19.2,5.8-27c1.9-7.8,3.6-11.6,5.3-11.6l0.6-2.4
		c-1.9,0.9-3.6,1.3-5.1,1.3c-3.4,0-5.1-3.3-5.1-9.6c0-6.5,1.5-13.2,4.5-20.1c1.9-4.2,3.6-6.4,5.1-6.5l16.4-16.5
		c4.5-4.5,9.4-8.7,14.3-12.9l-13.7,6.9c-9.2,4.5-20.9,11.2-34.8,20c14.3-12.9,32.2-24.3,53.3-34.1c21.1-9.8,38.2-16.3,51.6-19.4
		c13.2-3.1,22.6-4.7,27.9-4.7s9,0.9,10.9,2.9c0.2,0.4,1.1,0.5,2.1,0.5c1.9,0,4.5-0.4,7.7-0.9l2.6-0.4c0.2,0,0.2,0,0.2,0.2h11.5
		c-0.4-0.5-0.6-1.1-0.6-1.5c0-0.5,0.4-0.9,1.5-0.9c2.4,0,7.3,1.5,14.5,4.5c13.4,6,24.3,12,32.9,18.1c11.3,8.7,17.3,16,18.4,22
		s1.5,10.7,1.5,14.3c0,4.9-0.6,10-1.7,14.9c-1.3,5.8-1.9,11.8-1.9,18l0.9-4.5c0.6-3.1,1.3-4.7,1.5-4.9c0.9,0,1.3,2.5,1.3,7.6
		c0,1.8-1.7,5.3-5.3,10.2c-3.6,5.1-7.9,10.7-12.6,16.9c-13.9,18-20.9,28.7-20.9,32.5c0,0.5,0,0.9,0.2,1.1c0.2,0.2,2.4,0.9,6.4,2
		c11.7,3.3,20.7,6.9,26.9,10.9c3.6,2.4,5.6,4.7,5.6,7.4c0,4.5,1.9,8.9,5.8,13.4c6.4,8.5,9.6,16.9,9.6,25c0,11.2-7.5,26.1-22.2,44.6
		c-13.2,16.3-28.8,32.1-46.5,47.5c-17.9,15.4-33.5,27-46.7,34.7c-13.4,7.6-23.3,11.4-29.7,11.4
		C2006.7,720,2004.6,719.4,2002.7,718.5z M1960.4,646.5c2.8-3.1,12.4-6.2,28.6-9.2c13.4-2.7,20.3-4.9,20.3-6.7l-0.2-0.7l20.5-9.4
		c24.3-10.9,36.9-16.3,37.6-16.3l11.9-7.8c3-2.4,5.8-4.9,8.1-7.6s3.6-4.9,3.8-6.5c0.2-1.5,0.2-2.4,0.2-2.5c0-6-7.2-10.2-21.8-12.7
		c-3.6-0.5-7-0.7-10.7-0.7c-6.2,0-12.4,0.7-18.3,2.2c-14.9,3.5-27.9,8.5-39.3,14.9c-0.6,0.4-1.3,0.9-1.9,1.5
		c-0.6,0.7-0.8,1.1-1.1,1.1c-2.3,0-5.8,1.6-10.2,4.9c-2.8,2-5.1,4.5-6.8,7.8c-1.5,3.1-2.3,6-2.3,8.7v7.4c0,1.1,0.2,2.2,0.2,3.5
		c0,3.3-0.4,6.7-1.1,10.2l-1.1-34.5l-1.1-1.3l-0.2,2.2c-0.2-0.5-0.8-0.7-1.5-0.7c-1.3,0.2-3,0.9-5.1,2.2l-3.2,1.8l-1.3,1.3l-2.3,18
		c-1.7,12.5-2.6,21.6-2.6,27.4c0,1.5,0.2,2.2,0.4,2.2L1960.4,646.5z M1975.3,522.3c7.2-5.8,18.6-13.8,34.1-23.6l24.1-14.9l20.3-19.2
		c1.1-1.5,1.5-2.4,1.5-2.7v-0.2c0-0.2,0-0.2-0.2-0.2c-0.6,0-2.1,0.7-4.5,2c-10.7,6.5-19.6,11.1-27.3,14c-6.8,2.5-13,3.8-18.1,3.8
		c-3.8,0-6.6-0.7-7.7-2.2l-0.6-0.4c2.3,0.9,5.1,1.3,8.1,1.3c5.3,0,11.3-1.3,18.1-4c10.9-4.2,20.7-9.8,29.9-16.7
		c9-6.7,13.9-11.8,14.7-14.9c0.6-3.1,1.1-4.7,1.1-5.3c0-4.4-5.6-6.5-16.4-6.7c-11.1,0.9-22.8,3.6-35,8c-9.8,3.5-17.1,5.1-21.8,5.3
		c-3.2,0-6.2,2.9-9.2,8.7c-3,6-5.6,13.1-7.7,21.2c-2.3,8.2-3.6,14.5-4.1,19c-0.4,4.5-0.6,7.6-0.6,9.2c0,4.4,0.6,7.4,1.7,9.3
		c0,1.3-0.6,3.5-1.7,6.9l-0.2,2.5c0,0.2,0.2,0.4,0.4,0.4C1974.5,523.1,1974.7,522.9,1975.3,522.3z M2090.6,378.6
		c0.4-0.2,0.9-0.4,1.3-0.4c1.9,0,5.3,1.5,10.2,4c6,3.3,9.2,5.3,9.6,5.8C2104.6,384.8,2097.6,381.7,2090.6,378.6z M2113.6,389.3
		l1.5,0.4c0,0.2,0,0.2-0.2,0.2C2114.2,389.9,2113.8,389.7,2113.6,389.3z M2121.7,395c-0.4-0.2-0.6-0.4-0.6-0.5l0.4-0.2
		c2.4,0,4.1,0.7,4.9,2.2c0.9,1.3,1.3,2.4,1.3,3.3l-0.2,1.1C2124.9,397.5,2123,395.5,2121.7,395z M2148.2,441.8l-0.2-1.1
		c0-0.7,0.2-1.6,0.4-2.9c0.6-2,0.9-4.7,0.9-8c0-2.4-0.2-5.1-0.4-8c-0.6-7.1-4.7-15.4-11.7-25c-0.6-0.7-0.9-1.3-0.9-1.5h0.2
		c1.3,0,3.6,2.9,7.5,8.5c4.9,7.8,7.5,16.5,7.5,26.3c0,8.4-0.9,12.3-2.4,12.3C2148.6,442.5,2148.4,442.3,2148.2,441.8z"/>
	<path class="st2" d="M2155.4,710.9c-0.4-0.2-0.4-0.7-0.4-1.1c0-2.5,4.3-6.9,13-13.1c4.1-2.7,7.7-5.1,10.9-6.9l4.9-2.9l-0.6,0.2
		c-0.4,0.2-1.1,0.4-1.7,0.7c-0.6,0.2-1.3,0.5-1.9,0.7s-1.1,0.4-1.5,0.4h-0.4v-0.2c0-0.2,0.2-0.5,0.9-1.3c0.6-0.5,1.1-0.7,1.1-0.9
		s-0.2-0.2-0.6-0.2c-1.5,0.2-4.9,1.5-10.2,3.6l-7.9,3.6c-0.4,0-0.9-0.2-1.1-0.4c-0.4,0-0.6-0.2-1.1-0.4c-0.2-0.2-0.2-0.4-0.2-0.7
		h-0.2l-1.1,0.5l-18.1,0.7c0-1.6,0.9-2.9,2.6-3.6l3.2,0.2c-0.4-0.4-1.7-0.5-4.5-0.5c-6.4-0.4-9.4-0.7-9.4-1.3c0,0,0-0.2,0.2-0.4
		s0.9-0.5,1.9-0.9c1.1-0.5,1.9-0.9,3-1.5c0.9-0.4,1.5-0.9,2.1-1.6l-3.2,1.6c-1.5,0.5-3,0.7-4.5,0.7c-2.8,0-5.3-0.9-7.7-2.9
		c4.1-3.1,6-5.1,6-5.6c0-0.2,0-0.2-0.2-0.4c0,0-0.2,0-0.4,0c-0.6,0-1.9,0.2-3.6,0.9c-1.7,0.5-2.8,0.7-3.4,0.7l0.2-0.7
		c0.6-0.7,1.1-1.6,1.1-2.4c-0.2-0.9-0.6-1.6-1.1-2.5c-0.6-0.9-1.1-1.8-1.1-2.5c0-1.6,0.2-2.4,0.4-2.4c-1.1,0-1.7-0.2-1.9-0.4
		c0-0.5,0.4-1.3,1.1-1.8c5.6-4.4,8.5-6.9,8.5-7.3c0-0.2-0.2-0.2-0.2-0.2c-0.2,0-0.4,0-0.6,0.2c-1.1,0.4-2.6,0.5-4.3,0.5
		c0,0-0.2-0.2-0.2-0.4c0-0.7,0.9-2,2.4-3.8l6.4-7.1c3.4-1.5,7.5-4.5,12.4-8.9c4.9-4.4,8.8-8.7,11.5-13.2c2.8-4.4,4.3-8.2,4.3-11.4
		c0-1.3-0.2-2.5-0.6-3.8c-1.5-4.2-2.1-10.5-2.1-18.7c0-14.9,1.7-30.3,4.9-46.1c2.4-12,5.1-19.6,8.3-22.9c2.1-2,4.9-7.4,8.1-16.5
		c1.7-5.3,3-7.8,3.6-7.8c0-0.2-0.2-0.5-0.6-1.1c-0.4-0.5-0.6-1.1-0.6-2c0-1.6,0.6-2.5,2.1-2.9c1.5,0,2.4,0,2.6,0.4h0.4
		c1.9,0,3-0.4,3-0.9c0-1.6-0.2-2.9-0.9-3.8c-2.6-3.1-4.1-4.5-4.9-4.5h-0.4c0,0.4,0.4,0.9,1.1,2l-20.5,2.4v-0.2c0-0.5,0-0.9,0.4-1.5
		c0.2-0.4,0.4-0.9,0.6-1.3c0.2-0.5,0.4-1.1,0.4-1.5c0-0.5-0.4-0.9-1.1-0.9c-1.3,0-2.6,0.2-3.6,0.7c-0.6,0.2-1.5,0.4-2.1,0.4
		c-0.2,0-0.2-0.2-0.2-0.2c0-0.4,1.7-1.8,5.6-4.2c0.4-0.2,0.6-0.4,0.6-0.4c-1.1,0-2.4,0.2-3.8,0.5l-1.9,0.5c1.1,0.5,1.7,1.1,1.7,1.5
		l-1.7,0.4c-2.1,0-4.5-0.4-7-1.3c-1.7-0.5-3.2-1.3-4.1-2.2c-0.9-0.7-1.3-1.6-1.3-2.4c0-0.5,0.2-1.1,0.4-1.6c0.4-1.3,0.9-2.2,0.9-2.9
		c-0.2-0.9-0.4-1.6-1.1-2.5c-0.4-0.9-0.9-2-1.1-3.5c-0.2-1.5-0.2-2.5-0.2-3.1c0-2,0.4-4.7,1.3-8c0.6-1.6,6.4-7.8,17.5-18.3l16.9-16
		c8.8-2.7,21.3-9.4,38-20.3c29.4-19,49.3-28.5,59.5-28.5c2.6,0,4.7,0.4,6.8,1.3l-35.4,14.9c-23.5,10.3-37.6,17.1-42.2,20.5l40.1-10
		l10.2,0.5c11.3,0.5,24.8,0.9,40.5,0.9c8.3,0,13.7,0.7,16,2.4c0.4,0.2,0.9,0.5,0.9,0.9c0,0.9-3.4,1.5-10.5,1.6h-0.9l3.4,0.2
		c13.7,1.3,22.8,2.7,27.7,4.5c4.5,1.6,7.5,5.4,9.4,10.9l0.9,4l-0.9,0.5v0.5l2.4,2l3,2.2c-1.3,0-1.7,1.5-1.7,4.5
		c-0.4,5.1-1.7,7.6-4.5,7.6v0.2c1.5,0.5,2.4,1.3,2.6,1.8c0,0.7-0.2,1.5-0.4,2.2c-0.6-0.5-1.3-0.7-2.1-0.7c-0.6,0-1.5,0.2-2.1,0.4
		c-0.4,0.2-0.9,0.4-1.3,0.4c-0.2,0-0.6-0.2-0.6-0.4c0-0.7,0-1.5,0.2-2.2l-1.5,2.4c-0.2-0.5-0.4-0.9-0.6-0.9c-0.9,0-1.7,1.5-2.4,4.4
		l-0.2,1.6c0.2,0,0.2-0.2,0.4-0.4c0-0.2,0.2-0.7,0.6-1.8c0,1.8-0.4,2.9-1.1,3.5c-0.6,0.5-1.5,1.3-2.6,1.8c0,0.4-0.2,0.5-0.6,0.5
		c0-0.4-1.7-0.7-5.3-0.7c-10,0-19,0.7-27.3,2.2c-4.1,0.5-6.6,1.5-7.5,2.4c-12.8,5.4-19.4,15.4-19.4,29.9c0,1.8-2.4,9.6-7.2,23
		c-3.4,8.9-5.1,14.2-5.1,15.6c0,0.4,0,0.5,0.2,0.5c-3.8,1.3-5.8,3.6-6.2,6.9c-0.2,1.3-0.2,2.9-0.2,5.3c0.2,1.3,0.4,2.4,0.9,3.3
		l0.4,1.6c-1.3,0-2.4,1.3-3.4,3.6c-0.6,1.6-1.1,2.9-1.1,3.5c0,0.4,0,0.4,0.2,0.4c0.6,0,2.1-2.4,4.3-7.1
		c18.8-38.1,31.8-57.2,39.1-57.2c1.3,0,2.6,0.5,3.6,1.6l0.4,0.7h-0.9c-0.4-0.2-1.3-0.4-2.4-0.5c-1.1,0-2.1,0.5-3.4,1.6
		c-2.6,2.5-7,9.1-13.4,19.8c-6.4,10.5-12.8,22.5-19.6,35.6c-6.8,13.2-11.9,24.3-15.4,33.4c-3.4,8.9-5.1,15.1-5.1,18.7
		c0,1.5,0.2,2.7,0.6,3.5c2.4,2.2,9,3.8,19.8,5.3c12.4,1.5,20.7,3.5,25.4,6.2c3,2,4.3,4.7,4.3,8.3c0,0.5,1.1,0.9,3,0.9l5.8-0.4
		c0.9,0,1.3,0.4,1.3,0.7c-0.2,0.5-1.1,1.5-2.6,2.9h2.1c-0.2,0-0.4,0.2-0.6,0.2c-3.2,0.4-4.9,1.3-4.9,2.7c0,1.1,0.6,2,1.9,2.4
		c0.9,0.4,1.3,0.9,1.3,1.6c0,0.4-0.2,0.7-0.4,1.1c-0.2,0.4-3,0.7-8.8,1.1c-5.1,0.4-7.9,0.5-8.1,0.9h19.8c0,0.4-6,0.7-17.7,1.3
		c-2.6,0.2-4.1,0.4-4.5,0.7l4.3-0.2c5.1,0,9.6,0.4,13.9,1.5c4.1,0.9,6.2,2.5,6.2,4.9l-0.2,1.5c-0.2,0.4-1.3,0.5-3,0.9
		c-1.9,0.4-3.8,0.7-6.2,1.1c-1.7,0.4-3.4,0.7-4.9,1.1c-1.5,0.2-2.4,0.4-2.8,0.5l-0.4,0.2c0,0,0.6,0.2,1.9,0.2l4.3-0.2
		c3,0,4.7,0.2,4.9,0.5c0,1.3-1.5,3.1-4.9,5.3c-1.5,0.9-2.4,1.5-2.4,1.8c0,0.2,0.2,0.2,0.4,0.2l-4.5,2.9c-3.6,2-6.2,2.9-7.9,2.9
		s-2.8-0.5-3.2-1.3c0,1.1-0.2,1.8-0.9,2.4c-0.4,0.5-1.1,0.7-1.9,0.7c-0.9-0.2-1.7-1.3-2.6-3.1c0,2.4-2.4,4-7.2,4.7
		c-2.4,0.5-4.5,0.9-6.2,0.9l-1.5-0.2l-3.2,2.9c-2.1,1.8-4.1,2.9-5.6,3.3c-1.5,0-2.8-0.4-3.4-0.9c0-0.2-0.4-0.2-0.9-0.2
		c-2.4,0-9,1.5-20.3,4.2c-13.7,3.8-21.8,6.5-24.5,8.3c-1.5,0.9-9,6.7-22.8,17.1c-7.9,6.2-12.6,9.1-14.1,9.1L2155.4,710.9z
		 M2146.3,578.4c0-5.3,0.2-8,0.4-8.2c0.2,0,0.4,2.2,0.4,6.9c0,1.5,0.6,6.5,2.1,14.7l2.6,12C2148,602.4,2146.3,594,2146.3,578.4z"/>
	<path class="st2" d="M2379.9,679.7c-3.8-0.9-5.8-1.5-5.8-2c0-0.2,0.2-0.2,0.6-0.4s2.8-0.2,7-0.2l5.6,0.4c-0.4-0.4-1.7-0.7-3.6-0.9
		c-2.1-0.2-3.4-0.4-3.6-0.4c-0.2,0-0.2,0-0.2,0.2l-2.1-0.9c0,0.2-0.6,0.4-2.1,0.4l-4.7-0.5v0.7c0,0.5-0.4,0.7-1.5,0.7
		c-2.8-0.2-8.5-3.5-17.3-9.6c-0.2-0.2-0.2-0.2-0.2-0.4h0.2c0.4,0,1.1,0,1.9,0.2l0.4,0.2c0-0.2-4.3-1.5-13-4
		c-8.8-2.4-16-13.1-22-31.8c-6.2-18.7-9.2-38.3-9.2-58.8c0-5.3,0.2-10.5,0.4-15.8c1.9-26.9,5.6-52.6,11.1-77.3
		c5.3-24.7,10.2-44.1,14.7-58.2c-3,12.3-6,26.5-9,42.6c-3.2,16.1-6,30.3-8.8,42.6c-0.4,1.8-0.6,2.9-0.6,3.3v0.2
		c0.2,0,2.1-4.5,5.3-13.6c2.4-6.7,4.5-12.5,6.4-17.6l3-7.6l0.6-3.3c0.6-0.5,2.1-4.2,4.5-11.2c4.1-11.8,7-18.9,8.8-21.2
		c1.5-1.8,2.6-2.7,3.4-2.7c0.6,0,1.5,0.4,2.1,1.1l0.9-2.5c0.4-1.6,1.1-3.6,1.9-6c0.9-2.2,1.7-4.2,2.8-6.2c0.9-1.8,1.7-2.9,2.4-3.3
		c0.6-0.2,0.9-0.4,1.1-0.4c1.5,0,2.1,0.9,2.1,2.7c0,1.3-0.6,2.4-1.7,3.3c-0.6,0.5-1.1,0.9-1.5,0.9c0.6,0.4,1.3,0.5,1.9,0.5
		c1.3,0,2.8-1.3,4.7-3.6c4.1-6,9.8-8.9,16.9-8.9l1.3,2c0.9,1.3,1.5,2,1.9,2l0.2-0.2c0-0.5,0.2-0.9,0.4-0.9h0.4
		c1.9,1.6,4.9,2.4,9.2,2.4l-0.6,4.2c-0.2,1.5-0.4,3.1-0.4,5.1c0,0.7,0,1.1,0.2,1.3c0,0.2,0,0.2,0.2,0.2c0.9,0,2.6-3.5,5.1-10.3
		c0.2-0.5,0.2-0.7,0.4-0.7l-0.2,2.7l-2.1,8.7l5.8-10c0.2,0,0.2,0.7,0.2,2.2c0,1.3,0,2.9-0.2,4.7c-0.2,1.8-0.2,3.8-0.2,6
		c0,0.5,0,0.9,0.2,1.1l1.5-2.4c1.7-4.5,2.8-6.7,3.2-6.7c0.2,0,0.2,0.2,0.2,0.4c0,0.7-0.2,1.8-0.4,3.5c-2.6,9.4-3.8,14.7-3.8,16
		c4.1-6.7,6.8-10.2,8.5-10.2c1.7,0,2.6,2.5,2.6,7.8c0,8.5-2.1,22-6.4,40.5c-6.6,27-11.7,41.9-15.4,44.3c-1.9,1.5-3.4,4.9-4.5,10.2
		c-1.5,7.4-2.4,15.8-2.4,24.7c0,2.2,0,4,0.2,5.4c-0.4,0-0.6,4.7-0.6,14.2c0,18,0.2,26.9,0.9,26.9l5.6,3.5c3.6,2.5,6.6,3.8,8.8,3.8
		c0.6,0,0.9-0.4,0.9-1.1l16-11.4c9.2-7.3,13.9-11.8,13.9-13.8l0.2-1.6c1.1-1.6,1.9-2.5,2.4-2.5c12.2-23.4,19.4-41.2,22-53.3
		c2.4-12.2,3.6-22.1,3.6-29.6c0-3.3-0.2-6.2-0.6-8.9c-1.5-8.7-2.8-14.3-4.1-16.9c-0.2-0.5-0.4-1.1-0.4-1.3s0-0.2,0.2-0.2
		c6.2,3.8,9.4,8.5,9.8,14c0.4,5.6,0.6,9.4,0.6,11.8c-1.9,13.8-3.2,22.9-3.4,27.4c8.5-26.7,12.8-43.9,12.8-51.4
		c0-2.7-0.6-4.2-1.9-4.2l-2.6-19.6c-2.6-13.1-5.6-20.3-8.8-21.6c-3.4-1.3-5.1-3.5-5.1-6.4c0-4.9,3-10.3,9.2-16.3
		c4.5-4.2,7.5-6.2,9-6.2c0.6,0,0.9,0.4,0.9,1.1c0,1.3,0.2,1.8,0.6,1.8c1.1,0,1.7-0.9,1.7-2.9c0-2.4-0.9-3.5-2.4-3.5l-1.1,0.2
		l-2.1,0.5l4.5-1.5c3.4-0.9,5.1-1.6,5.1-2.4v-0.2c-0.2-0.4-1.7-0.5-4.1-0.5c1.5-0.7,4.9-1.1,10.7-1.1c0.6-0.2,1.1-0.2,1.5-0.2
		c1.9,0,3.4,0.5,4.7,1.6l-1.7,0.5l6.4,1.3l-1.5-0.7c-2.8-1.3-4.1-2.2-4.1-2.7s0.9-0.7,2.6-0.7c3.2,0,5.3,0.4,6.6,1.1
		c1.7,1.1,3,2.9,4.1,5.3l0.2,1.3l-0.4-6.9l5.6,4c3.6,2.9,6.4,4.9,8.1,5.8l1.9,0.9v-1.1c0-0.2,0-0.5,0.2-0.7c0-0.2,0.2-0.4,0.4-0.5
		c0.6,0,1.3,0.4,1.9,1.3s1.9,3.1,3.4,6.4c1.1,2,4.7,6.9,10.9,15.1l9.2,11.4l-2.8-16.9c-2.4-12.5-3.4-21.8-3.4-27.6
		c0-1.3,0.2-2,0.6-2h0.2c10.2,56.8,15.4,85.8,15.4,87.5l-1.9,10.9c-0.9,6.2-1.3,10.5-1.3,12.9c0,1.3,0,2.4,0.2,3.3l-1.9,4.7
		c-0.2,1.3-0.4,2.7-0.4,4.5c0.2,1.6,0.9,2.9,1.9,4c-0.4-0.2-0.9-0.4-1.1-0.4c-0.6,0-1.1,0.7-1.1,2l0.2,3.8c0.2,0.4,0.2,0.9,0.2,1.6
		c-3.6,3.5-6.8,13.1-9.8,29c-2.8,15.4-5.8,23.2-9.2,23.2c-1.1,0-3,1.8-5.3,5.6c-3.4,5.4-8.5,14.3-15.1,26.7l-3.2,6l-17,18.3
		c-9.6,10.5-16.6,17.6-21.1,21.4l1.3-6.5c-1.5,1.1-2.8,2.9-4.1,5.4c-1.1,0.5-1.9,0.7-2.8,0.9l-1.9,0.4c-1.5,0-3.6,1.5-6.2,4.5
		c-2.1,2-3.2,3.3-3.2,3.8l-0.2,0.7c0,0.2,0.2,0.2,0.6,0.2l0.4-0.2c-0.2,0.2-0.2,0.2-0.4,0.2c-0.2,0.2-1.5,1.1-3.8,2.7l-0.9-0.2
		c-0.2,0-1.3,0.4-3,1.3c-2.6,1.3-6,2.9-10.5,4.9c-2.6,1.1-3.8,2-3.8,2.4c0,0,0.2,0.2,0.6,0.2s0.9,0,1.5-0.2c12.6-2,21.3-2.9,26-2.9
		c1.7,0,2.6,0.2,2.6,0.5s-0.6,0.9-2.1,1.5c-10.5,3.8-22.4,6.3-35.9,7.6c-13.4,1.3-23.7,2-30.5,2
		C2391.2,681.1,2385,680.6,2379.9,679.7z M2539.7,415.8c0-0.4,0.2-0.5,0.6-0.9l0.6-0.5v0.2c0,0.2-0.6,1.3-1.7,2.9L2539.7,415.8z"/>
	<path class="st2" d="M2637.7,721.8c-7-0.5-10.7-1.3-10.7-2c0-0.4,1.3-0.7,3.8-1.1c-12.4-0.2-23.7-2-34.1-5.4
		c-10.5-3.3-20.7-9.1-30.7-17.4l-0.9-0.7c-2.1-1.6-4.7-4.7-7.9-9.2c-3.6-5.1-5.3-9.6-5.3-13.4c0-3.6,2.8-5.6,8.3-6.2
		c0.6-0.2,0.9-0.7,0.9-1.8l-0.2-0.9c0-2,0.4-2.9,1.1-2.9c0.4,0,1.1,0.2,1.9,0.5c-0.2-0.5-0.4-1.1-0.4-1.6c0-2,1.9-5.4,6-10.3
		c1.9-2.4,3.6-4.4,5.1-5.8v0.9c0,1.5,0.2,2.2,0.9,2.2c0.9,0,1.7-1.5,2.4-4.5c0.4-0.5,1.7-1.1,4.1-1.5c1.5-0.2,2.1-0.5,2.1-0.7v-0.2
		l3.6,2.5c0.4,0,1.1-1.1,2.1-3.1c1.7-3.8,3.2-5.8,4.7-5.8c0.6,0,1.5,0.7,2.1,2h1.5c1.5,0,2.1,0.5,2.1,1.8l-0.2,1.3l7.7,9.8v-0.7
		c0-1.1,0.4-2.2,1.1-3.1c0.6-0.9,1.5-1.6,2.6-2.2c1.1-0.5,1.9-0.9,2.8-1.1l1.3-0.4c0.6,0,1.3,0.9,1.9,2.9l1.1,3.1l-1.3,0.5
		c4.5,1.3,9,2,13.4,2c3.6,0,7.2-0.5,10.7-1.5c7.7-2.2,14.1-5.1,19-8.7s7.2-6,7.5-7.1l0.2-1.5c0-0.5-0.4-0.9-1.1-0.9
		c-1.3,0-3.8,0.9-7.9,2.9h-0.4c-2.1,0-8.1-2.9-17.9-8.9c-10.5-6.3-22.6-14.7-36.5-24.7c-16.6-12.2-31.8-24.3-45.2-36.3
		c-13.4-11.8-21.3-20.7-23.3-26.3l27.9,26.1c19.2,17.8,32.9,29.4,40.8,35l2.1,1.3l0.2-0.2c0-0.2-1.3-1.5-3.8-3.8l-17.3-15.2
		c-6.6-6-9.8-9.4-9.8-10.3c0-0.2,0-0.2,0.2-0.2l-10.5-21.4c-7-14.7-10.5-23.6-10.5-26.7c0-6.3,2.8-21.8,8.3-45.9
		c5.1-22.9,8.8-34.3,11.1-34.3h0.2l19.4-23.8c13-15.6,20.7-24.3,23.1-26.1c6.2-4,15.6-8.5,27.7-13.8c8.3-3.5,13-5.3,14.1-5.3h0.2
		c0,0.4-4.1,2.5-12.4,6.4c-16.4,8-28.8,16.1-37.3,24.7c-8.8,8.5-13,14-13,16.3c0,0.5,0.2,0.9,0.6,0.9c1.5,0,6.6-4.5,15.1-13.4
		c8.5-8.9,17.7-14.5,27.7-17.2s19.2-4,27.9-4c10.5,0,20.7,1.3,30.7,3.8c6.6,1.6,10.2,2.7,10.5,2.9l10,3.8c6.6,2.9,9.8,5.4,9.8,7.6
		c0,5.3,0.4,8,1.3,8h0.2c0,0.4,1.1,1.5,3,3.1c3.2,3.1,5.6,4.7,6.6,5.3l3.8,6.9c2.4,4.7,3.6,9.1,3.6,12.9l-0.2,8.2l0.2,8
		c0,3.8-0.4,8.4-1.1,13.8c-0.2-1.1-0.4-1.6-0.6-1.6c-0.9,0-2.6,2.9-4.9,8.7c-3,7.1-5.6,14.1-7.9,21.6c-0.9,2.7-1.3,4.5-1.3,5.1
		c0,0.2-3.2,4-9.8,11.8c-6.6,7.8-9.8,11.8-9.8,12c0,0.2-1.1,1.3-3,2.9c-1.5,1.3-2.6,2-3.2,2c-0.2,0-0.2-0.2-0.2-0.4
		c2.4-2,3.4-3.3,3.4-4.2c0-0.5-0.4-0.7-1.5-0.7l-5.6,2.7c-6,2.9-10,4.4-12.2,4.4c-1.1,0-1.5-0.4-1.5-0.9c0-0.5,0.2-1.3,0.9-2.2
		c-1.7,0.2-3.4,0.4-4.9,0.4c-4.5,0-8.1-1.3-10.5-3.6c-3.2-3.3-4.9-6.7-5.1-10.5c-0.2-3.6-0.4-6.4-0.4-8.2c0-8.2,1.5-17.1,4.3-26.3
		l1.7-6l1.1-14.5c-7.5,0.4-13.2,4.4-16.9,12.2c-3.6,7.8-5.8,15.4-6.4,22.5c-0.6,7.3-1.1,12.9-1.1,16.7c0,5.1,0.4,9.6,1.1,13.8
		c1.1,6.7,2.6,10,4.5,10l0.6-0.2l16.4,23.6h0.2c1.1,0,3.6,1.6,8.1,5.1c4.3,3.5,9.6,8,15.8,13.2c6.2,5.3,12.2,10.5,17.9,15.8
		c5.8,5.3,8.8,8,9.2,8.5c0.2,0.2,0.2,0.4,0.4,0.4v-0.5c1.5,0,5.6,3.3,12.4,10c9,8.9,13.4,16.3,13.4,22.3c0,18-2.1,32.5-6.2,43.5
		c-4.3,11.1-8.5,19.2-12.6,24.3l-6.4,7.6l6.8-11.8c4.5-8.2,6.6-13.1,6.6-14.7c0-0.5-0.2-0.7-0.4-0.7c-0.6,0-1.5,0.5-2.8,1.6
		c-2.4,2.5-8.8,8-18.8,16.2c-14.7,11.8-26,17.6-34.4,17.6c-1.9,0-3.8-0.4-5.6-1.1c-8.8,1.8-17.3,3.1-26,4l-4.3,0.4
		C2644.1,722.1,2640.9,722,2637.7,721.8z M2583.7,712.2c-9.6-7.4-15.8-12.7-18.1-16.2v-0.2l0.6,0.4c6.6,6.9,14.9,13.2,24.5,19
		c9.6,5.8,19.6,10,30.5,12.3v0.2C2605.7,724.7,2593.3,719.6,2583.7,712.2z M2631.3,729.2c-2.8-0.2-5.3-0.7-8.1-1.3
		c3,0.4,6,0.5,9.2,0.5c7,0,14.7-0.9,22.6-3.1l1.7-0.4c-1.1,0.4-3,0.9-5.8,1.6c-3,0.7-6.2,1.3-9.4,1.8c-3.4,0.5-6.4,0.7-9,0.7
		L2631.3,729.2L2631.3,729.2z"/>
</g>
</svg>
